<?xml version="1.0" encoding="UTF-8" standalone="no"?>
<!-- Created with Inkscape (http://www.inkscape.org/) -->

<svg
   width="40.275002mm"
   height="7.9650002mm"
   viewBox="0 0 40.275002 7.9650001"
   version="1.1"
   id="svg31382"
   inkscape:version="1.1.2 (0a00cf5339, 2022-02-04)"
   sodipodi:docname="open-in-quiqr.svg"
   xmlns:inkscape="http://www.inkscape.org/namespaces/inkscape"
   xmlns:sodipodi="http://sodipodi.sourceforge.net/DTD/sodipodi-0.dtd"
   xmlns="http://www.w3.org/2000/svg"
   xmlns:svg="http://www.w3.org/2000/svg">
  <sodipodi:namedview
     id="namedview31384"
     pagecolor="#ffffff"
     bordercolor="#666666"
     borderopacity="1.0"
     inkscape:pageshadow="2"
     inkscape:pageopacity="0.0"
     inkscape:pagecheckerboard="0"
     inkscape:document-units="mm"
     showgrid="false"
     fit-margin-top="0"
     fit-margin-left="0"
     fit-margin-right="0"
     fit-margin-bottom="0"
     lock-margins="true"
     inkscape:zoom="0.66368547"
     inkscape:cx="-40.681921"
     inkscape:cy="15.067378"
     inkscape:window-width="2516"
     inkscape:window-height="1330"
     inkscape:window-x="26"
     inkscape:window-y="23"
     inkscape:window-maximized="0"
     inkscape:current-layer="layer1" />
  <defs
     id="defs31379" />
  <g
     inkscape:label="Layer 1"
     inkscape:groupmode="layer"
     id="layer1"
     transform="translate(-84.70948,-144.31817)">
    <g
       id="g31612"
       transform="translate(239.07972,-27.968849)">
      <path
         id="rect31204"
         style="fill:#227328;stroke-width:0.0666317;stroke-linejoin:round"
         d="m -152.89271,172.28702 h 37.31994 c 0.81856,0 1.47753,0.65898 1.47753,1.47753 v 5.00994 c 0,0.81855 -0.65897,1.47753 -1.47753,1.47753 h -37.31994 c -0.81855,0 -1.47753,-0.65898 -1.47753,-1.47753 v -5.00994 c 0,-0.81855 0.65898,-1.47753 1.47753,-1.47753 z" />
      <g
         id="g31210"
         transform="matrix(0.12730817,0,0,0.12730817,-167.93324,119.78779)"
         style="fill:#ffbe58;fill-opacity:1">
        <g
           aria-label="U"
           id="g31208"
           style="font-size:40.2705px;line-height:1.25;font-family:'Fugaz One';-inkscape-font-specification:'Fugaz One, Normal';letter-spacing:0px;word-spacing:0px;stroke-width:1.00677">
          <path
             d="m 323.10323,456.06707 q -3.18137,2.65785 -9.02059,2.65785 -5.83922,0 -8.09437,-2.69812 -1.61082,-1.85245 -1.61082,-5.11436 0,-1.44974 0.32216,-3.18137 l 3.26191,-18.5647 h 7.24869 l -3.26191,18.40362 q -0.16108,1.00676 -0.16108,2.09407 0,2.81893 3.38272,2.81893 2.01353,0 3.22164,-1.04703 1.20812,-1.04703 1.69136,-3.86597 l 3.26191,-18.40362 h 7.24869 l -3.26191,18.5647 q -1.00676,5.63787 -4.2284,8.336 z"
             id="path31206" />
        </g>
      </g>
      <path
         id="path31212"
         style="fill:#ff5758;stroke-width:0.00872457;stroke-linejoin:round"
         d="m -133.86567,173.88275 h 2.92391 c 0.1804,0 0.32564,0.14523 0.32564,0.32564 0,0.1804 -0.14524,0.32562 -0.32564,0.32562 h -2.92391 c -0.1804,0 -0.32563,-0.14522 -0.32563,-0.32562 0,-0.18041 0.14523,-0.32564 0.32563,-0.32564 z" />
      <path
         id="path31214"
         style="fill:#ff5758;stroke-width:0.00840436;stroke-linejoin:round"
         d="m -134.90397,175.051 h 2.66628 c 0.18042,0 0.32564,0.14522 0.32564,0.32564 0,0.18039 -0.14522,0.32562 -0.32564,0.32562 h -2.66628 c -0.1804,0 -0.32564,-0.14523 -0.32564,-0.32562 0,-0.18042 0.14524,-0.32564 0.32564,-0.32564 z" />
      <g
         aria-label="Q"
         id="g31218"
         style="font-size:27.9811px;line-height:1.25;font-family:'Fugaz One';-inkscape-font-specification:'Fugaz One, Normal';letter-spacing:0px;word-spacing:0px;fill:#ff5758;stroke-width:0.699533"
         transform="matrix(0.20806775,0,0,0.20806775,-108.94667,160.44019)">
        <path
           d="m -105.20471,64.617076 q 6.771427,0 6.771427,5.260446 0,0.839433 -0.167887,1.818772 l -1.147225,6.435653 q -0.559625,3.245808 -2.322435,5.008617 -1.73482,1.734828 -4.86871,2.098582 0.30779,1.00732 1.483,1.594923 1.20319,0.615584 3.1059,0.615584 l -0.1399,3.973316 q -2.12657,0 -3.74947,-0.475678 -1.59492,-0.475679 -2.49032,-1.175206 -0.86741,-0.671547 -1.42703,-1.594923 -0.83944,-1.427036 -0.8954,-2.993978 -4.61688,-0.699527 -4.61688,-5.064579 0,-0.923376 0.19587,-1.986658 l 1.14722,-6.435653 q 1.25915,-7.079218 9.12184,-7.079218 z M -108.11474,81.014 q 1.39905,0 2.23848,-0.699527 0.83944,-0.699528 1.17521,-2.574261 l 1.00732,-5.652183 q 0.0839,-0.531641 0.0839,-0.951357 0,-2.182526 -2.35041,-2.182526 -2.88205,0.05596 -3.41369,3.133883 l -0.97934,5.652183 q -0.11193,0.671546 -0.11193,1.399055 0,1.874733 2.35042,1.874733 z"
           id="path31216" />
      </g>
      <path
         id="path31220"
         style="fill:#ff5758;stroke-width:0.0074261;stroke-linejoin:round"
         d="m -134.23358,176.33718 h 1.93893 c 0.1804,0 0.32564,0.14523 0.32564,0.32564 0,0.1804 -0.14524,0.32562 -0.32564,0.32562 h -1.93893 c -0.1804,0 -0.32564,-0.14522 -0.32564,-0.32562 0,-0.18041 0.14524,-0.32564 0.32564,-0.32564 z" />
      <path
         id="path31222"
         style="fill:#ff5758;stroke-width:0.00872457;stroke-linejoin:round"
         d="m -135.21498,177.5052 h 2.92391 c 0.1804,0 0.32564,0.14524 0.32564,0.32564 0,0.18041 -0.14524,0.32564 -0.32564,0.32564 h -2.92391 c -0.18041,0 -0.32564,-0.14523 -0.32564,-0.32564 0,-0.1804 0.14523,-0.32564 0.32564,-0.32564 z" />
      <g
         id="g31232"
         transform="matrix(0.12730817,0,0,0.12730817,-164.55293,106.82407)"
         style="fill:#ffde59;fill-opacity:1">
        <g
           aria-label="I"
           id="g31226"
           style="font-size:40.2705px;line-height:1.25;font-family:'Fugaz One';-inkscape-font-specification:'Fugaz One, Normal';letter-spacing:0px;word-spacing:0px;stroke-width:1.00677">
          <path
             d="m 315.39887,530.99578 -5.07408,28.99476 h -7.28896 l 5.11435,-28.99476 z"
             id="path31224" />
        </g>
        <g
           aria-label="I"
           id="g31230"
           style="font-size:40.2705px;line-height:1.25;font-family:'Fugaz One';-inkscape-font-specification:'Fugaz One, Normal';letter-spacing:0px;word-spacing:0px;stroke-width:1.00677">
          <path
             d="m 315.39887,530.99578 -5.07408,28.99476 h -7.28896 l 5.11435,-28.99476 z"
             id="path31228" />
        </g>
      </g>
      <g
         id="g31238"
         transform="matrix(0.12730817,0,0,0.12730817,-162.80137,106.82407)"
         style="fill:#7ed758;fill-opacity:1">
        <g
           aria-label="Q"
           id="g31236"
           style="font-size:40.2705px;line-height:1.25;font-family:'Fugaz One';-inkscape-font-specification:'Fugaz One, Normal';letter-spacing:0px;word-spacing:0px;stroke-width:1.00677">
          <path
             d="m 318.74133,530.71389 q 9.74546,0 9.74546,7.57085 0,1.20811 -0.24163,2.61758 l -1.65109,9.26222 q -0.80541,4.67138 -3.34245,7.20842 -2.49677,2.49677 -7.00707,3.02028 0.44298,1.44974 2.13434,2.29542 1.73163,0.88595 4.47003,0.88595 l -0.20136,5.71842 q -3.06055,0 -5.39624,-0.6846 -2.29542,-0.6846 -3.58408,-1.69136 -1.24838,-0.9665 -2.05379,-2.29542 -1.20812,-2.0538 -1.28866,-4.30895 -6.64463,-1.00676 -6.64463,-7.28896 0,-1.32892 0.28189,-2.8592 l 1.65109,-9.26222 q 1.81217,-10.18843 13.12819,-10.18843 z m -4.18814,23.59851 q 2.01353,0 3.22164,-1.00676 1.20812,-1.00677 1.69136,-3.70489 l 1.44974,-8.13464 q 0.12081,-0.76514 0.12081,-1.3692 0,-3.1411 -3.38272,-3.1411 -4.14786,0.0805 -4.913,4.5103 l -1.40947,8.13464 q -0.16108,0.96649 -0.16108,2.01353 0,2.69812 3.38272,2.69812 z"
             id="path31234" />
        </g>
      </g>
      <g
         id="g31244"
         transform="matrix(0.12730817,0,0,0.12730817,-159.29828,106.82407)"
         style="fill:#37b6ff;fill-opacity:1">
        <g
           aria-label="R"
           id="g31242"
           style="font-size:40.2705px;line-height:1.25;font-family:'Fugaz One';-inkscape-font-specification:'Fugaz One, Normal';letter-spacing:0px;word-spacing:0px;stroke-width:1.00677">
          <path
             d="m 319.82863,530.99578 q 4.59084,0 6.52382,2.01352 1.44974,1.53028 1.44974,3.86597 0,0.80541 -0.16108,1.69136 l -0.56379,3.1411 q -0.48325,2.61758 -1.69136,4.2284 -1.16785,1.61082 -2.61758,2.29542 l 3.66461,11.75899 h -8.13464 l -3.38272,-10.83276 h -2.49677 l -1.65109,10.83276 h -7.73194 l 5.11435,-28.99476 z m -2.53704,6.2822 h -3.02029 l -1.04703,7.00706 h 2.81893 q 2.13434,0 3.06056,-1.00676 0.92622,-1.04703 0.92622,-2.73839 0,-3.26191 -2.73839,-3.26191 z"
             id="path31240" />
        </g>
      </g>
      <path
         id="path31246"
         style="fill:#9d98f1;stroke-width:0.0171785;stroke-linejoin:round"
         inkscape:transform-center-y="-9.1554772e-06"
         d="m -116.65475,173.99528 -0.21399,0.71175 -0.27148,-0.69187 -0.74304,0.0164 0.57412,-0.47199 -0.24524,-0.7016 0.6263,0.40016 0.59148,-0.45003 -0.18704,0.71931 0.61078,0.42345 z" />
      <g
         aria-label="Open in "
         id="text31250"
         style="font-style:italic;font-weight:bold;font-size:4.76795px;line-height:1.25;font-family:'Source Sans 3';-inkscape-font-specification:'Source Sans 3, Bold Italic';letter-spacing:0px;fill:#edfaee;fill-opacity:0.853675;stroke-width:0.119199">
        <path
           d="m -151.29404,178.22615 c 0.84393,0 1.57819,-0.81056 1.57819,-1.90718 0,-0.82486 -0.45772,-1.31596 -1.16815,-1.31596 -0.83916,0 -1.57819,0.81055 -1.57819,1.90718 0,0.82962 0.45772,1.31596 1.16815,1.31596 z m 0.0334,-0.56262 c -0.34329,0 -0.53401,-0.30038 -0.53401,-0.79625 0,-0.71996 0.43865,-1.29688 0.88207,-1.29688 0.3433,0 0.52925,0.29561 0.52925,0.79148 0,0.71996 -0.43389,1.30165 -0.87731,1.30165 z"
           id="path31253" />
        <path
           d="m -149.69678,179.04623 h 0.65321 l 0.1192,-0.6389 0.0668,-0.46249 h 0.01 c 0.10489,0.17641 0.2813,0.28131 0.48156,0.28131 0.64844,0 1.25874,-0.71043 1.25874,-1.61157 0,-0.55785 -0.24794,-0.86777 -0.66752,-0.86777 -0.24316,0 -0.49586,0.1335 -0.71519,0.32899 h -0.0191 l -0.005,-0.27177 h -0.52924 z m 1.28258,-1.35409 c -0.1192,0 -0.2384,-0.0668 -0.30992,-0.21933 l 0.18118,-0.89638 c 0.13827,-0.21932 0.33853,-0.29561 0.48634,-0.29561 0.16687,0 0.27654,0.12874 0.27654,0.41481 0,0.56739 -0.30515,0.99651 -0.63414,0.99651 z"
           id="path31255" />
        <path
           d="m -145.57727,176.25221 c 0.23839,0 0.31945,0.15735 0.31945,0.34806 0,0.0524 -0.01,0.0858 -0.0191,0.13351 h -0.85347 c 0.11444,-0.3433 0.3719,-0.48157 0.55309,-0.48157 z m -0.21933,1.97394 c 0.32422,0 0.60553,-0.1049 0.80102,-0.26224 l -0.21933,-0.39097 c -0.11443,0.0858 -0.29084,0.1478 -0.44819,0.1478 -0.29561,0 -0.51493,-0.11443 -0.52924,-0.53878 h 1.35887 c 0.0381,-0.0953 0.10966,-0.32422 0.10966,-0.54831 0,-0.4911 -0.20502,-0.88684 -0.77718,-0.88684 -0.6246,0 -1.31118,0.59123 -1.31118,1.46853 0,0.63414 0.39574,1.01081 1.01557,1.01081 z"
           id="path31257" />
        <path
           d="m -144.51879,178.16893 h 0.65321 l 0.30515,-1.55912 c 0.20502,-0.20979 0.34806,-0.30515 0.49587,-0.30515 0.15734,0 0.24316,0.0811 0.24316,0.24317 0,0.062 -0.0191,0.12873 -0.0381,0.22409 l -0.28131,1.39701 h 0.65321 l 0.29561,-1.47806 c 0.0238,-0.1192 0.0382,-0.22887 0.0382,-0.33853 0,-0.39097 -0.17165,-0.60553 -0.56262,-0.60553 -0.30038,0 -0.55785,0.17165 -0.78671,0.3719 h -0.0191 l 0.01,-0.31468 h -0.52924 z"
           id="path31259" />
        <path
           d="m -140.93328,178.16893 h 0.6532 l 0.47203,-2.3649 h -0.64844 z m 0.91067,-2.71773 c 0.22887,0 0.40528,-0.16211 0.40528,-0.38621 0,-0.20502 -0.17165,-0.31468 -0.35283,-0.31468 -0.22409,0 -0.40527,0.17641 -0.40527,0.3862 0,0.20979 0.17641,0.31469 0.35282,0.31469 z"
           id="path31261" />
        <path
           d="m -139.66978,178.16893 h 0.65321 l 0.30515,-1.55912 c 0.20502,-0.20979 0.34806,-0.30515 0.49586,-0.30515 0.15735,0 0.24317,0.0811 0.24317,0.24317 0,0.062 -0.0191,0.12873 -0.0381,0.22409 l -0.28131,1.39701 h 0.65321 l 0.29561,-1.47806 c 0.0238,-0.1192 0.0381,-0.22887 0.0381,-0.33853 0,-0.39097 -0.17164,-0.60553 -0.56262,-0.60553 -0.30038,0 -0.55785,0.17165 -0.78671,0.3719 h -0.0191 l 0.01,-0.31468 h -0.52925 z"
           id="path31263" />
      </g>
    </g>
  </g>
</svg>
